<svg width="40" height="40" xmlns="http://www.w3.org/2000/svg" p-id="6402" version="1.1" class="icon" t="1699957066980">

 <g>
  <title>Layer 1</title>
  <path stroke="null" id="svg_1" p-id="6403" fill="#1296db" d="m24.4185,6.0417a1.59883,1.39566 0 0 1 1.14236,0.41939l7.84864,6.99922a1.59883,1.39566 0 0 1 0.45646,0.97696l0,16.72624a3.19765,2.79131 0 0 1 -3.19765,2.79131l-19.18592,0a3.19765,2.79131 0 0 1 -3.19765,-2.79131l0,-22.3305a3.19765,2.79131 0 0 1 3.19765,-2.79131l12.93611,0zm-1.33342,2.09348l-11.60268,0a0.79941,0.69783 0 0 0 -0.79941,0.69783l0,22.3305a0.79941,0.69783 0 0 0 0.79941,0.69783l19.18592,0a0.79941,0.69783 0 0 0 0.79941,-0.69783l0,-14.97888l-7.18273,0a1.19912,1.04674 0 0 1 -1.19912,-1.04674l-0.0008,-7.00271zm2.39824,1.24911l0,4.70685l5.27693,0l-5.27693,-4.70685z"/>
  <path stroke="null" id="svg_2" p-id="6404" fill="#1296db" d="m16.36238,27.89889l-0.10518,-0.0038a1.0956,1.14115 0 0 1 -0.99846,-1.23473l0.75231,-9.12923c0.09422,-1.15028 1.58059,-1.44394 2.07288,-0.40929l2.64625,5.5635l2.69811,-5.57111c0.48207,-0.99585 1.8859,-0.74555 2.05681,0.31344l0.01315,0.10879l0.70922,9.12923a1.0956,1.14115 0 0 1 -2.1839,0.18411l-0.39515,-5.08346l-1.92899,3.98415c-0.39076,0.80642 -1.46811,0.8338 -1.90854,0.08977l-0.05113,-0.09738l-1.88005,-3.9522l-0.41706,5.06444a1.0956,1.14115 0 0 1 -1.08026,1.04378z"/>
 </g>
</svg>